PathFileType	4	(X/Y/Z)	D:\TRACE\spotREDO_2-26-24\spot_Both_Motion_3_5-v60.trc
DataRate	CameraRate	NumFrames	NumMarkers	Units	OrigDataRate	OrigDataStartFrame	OrigNumFrames
100.00	100.00	      24	9	mm	100.00	6126	      7000
Frame#	Time	front left toe			Front right toe			aft left toe			aft right toe			Arm			FL body			FR body			AL Body			AR Body			
		X1	Y1	Z1	X2	Y2	Z2	X3	Y3	Z3	X4	Y4	Z4	X5	Y5	Z5	X6	Y6	Z6	X7	Y7	Z7	X8	Y8	Z8	X9	Y9	Z9	

6126	61.250	-238.53870	38.61996	-435.48203	162.12286	36.91535	-401.72675	-280.41452	11.46354	120.49274	124.19482	19.31040	199.22334	32.58715	765.19244	-720.26251	-130.06537	609.39337	-497.78220	25.14379	614.01855	-483.94409	-215.50546	559.14270	380.82477	-68.22215	552.59082	396.03406	
6127	61.260	-238.49959	38.66701	-435.50525	162.16679	37.01862	-401.73941	-280.32034	11.44345	120.44630	124.20574	19.25826	199.15997	32.49020	765.13055	-720.16083	-129.93394	610.11945	-498.24808	25.18857	614.72247	-484.57281	-214.99374	559.13593	380.10492	-67.51970	552.71381	395.39951	
6128	61.270	-238.71135	38.76283	-435.65891	162.00729	37.00921	-401.87976	-280.33087	11.55276	120.39498	124.22743	19.27548	199.07310	32.32138	764.42511	-720.03308	-129.80099	610.54022	-498.57333	25.39745	615.42151	-484.99881	-214.32487	558.99792	379.80124	-66.96219	552.61969	394.94925	
6129	61.280	-238.92967	38.63446	-435.80582	161.87985	37.04852	-401.87476	-280.31314	11.59412	120.19563	124.20672	19.31738	199.09157	32.13119	762.91742	-720.39880	-129.74030	611.32159	-499.24991	25.52084	615.92523	-485.33783	-213.69148	558.92236	379.70273	-66.46599	552.45453	394.74551	
6130	61.290	-239.01764	38.66805	-435.85587	161.86458	37.00957	-401.87860	-280.39349	11.65430	120.45406	124.22778	19.26982	199.11423	31.88023	760.04272	-721.30707	-129.55896	611.85858	-499.44153	25.70927	616.32947	-485.60107	-213.33395	558.75427	379.53796	-65.88942	552.02112	394.47055	
6131	61.300	-239.06015	38.68629	-435.93066	161.89264	36.86746	-401.89523	-280.50363	11.74771	120.41234	124.10783	19.29670	199.11343	30.69033	756.84857	-723.06305	-129.11546	612.10040	-499.50232	25.93413	616.43915	-485.79108	-212.98544	558.81915	379.23105	-65.71758	551.90375	394.21265	
6132	61.310	-239.14987	38.65478	-435.94687	161.94589	36.76431	-401.89450	-280.56982	11.71459	120.44758	124.05264	19.27612	199.13762	30.21191	753.48889	-724.32159	-128.58214	612.03876	-499.55255	26.82721	616.21814	-485.92178	-212.73926	559.28931	379.01566	-65.22350	552.21368	394.02170	
6133	61.320	-239.18973	38.70336	-435.98892	161.62312	36.85655	-402.00845	-280.56879	11.82318	120.46748	123.85853	19.32559	199.12047	29.27829	750.66870	-725.98639	-128.26726	611.71637	-499.50156	27.21080	615.70282	-486.04599	-212.35684	559.72168	378.94284	-64.82253	552.57343	393.97165	
6134	61.330	-239.23477	38.69673	-435.95169	161.65192	36.78578	-402.00201	-280.55399	11.86811	120.44556	123.81362	19.26598	199.11295	29.03119	748.35913	-726.83881	-127.66634	611.16937	-499.77591	27.48781	615.11639	-486.33295	-211.72586	560.13416	378.85260	-64.16803	553.03412	393.93369	
6135	61.340	-239.35291	38.59570	-435.98129	161.94119	36.70935	-401.82489	-280.56079	12.05240	120.47054	123.81700	19.26908	199.05621	29.07366	746.92853	-727.80518	-127.24710	610.62372	-499.97293	27.88974	614.38007	-486.52206	-211.12265	560.67352	378.78827	-63.77034	553.47540	393.72440	
6136	61.350	-239.44145	38.57854	-435.91849	161.59305	36.81289	-401.97723	-280.54962	12.15269	120.46611	123.72217	19.14304	198.99094	29.04553	746.32141	-728.31439	-126.70839	609.83148	-500.13141	28.38581	613.38104	-486.68430	-210.52121	561.17511	378.56476	-63.13018	553.78510	393.61743	
6137	61.360	-239.56805	38.63174	-435.87906	161.55267	36.79477	-401.99109	-280.58026	12.18168	120.22202	123.72655	19.04294	198.95178	29.42238	746.29651	-728.30762	-126.37233	609.15997	-500.35010	28.30771	612.73096	-487.01120	-209.66457	561.62592	378.46024	-61.96500	554.19879	393.57928	
6138	61.370	-239.63753	38.68951	-435.80557	161.53046	36.82274	-401.97195	-280.55859	12.25838	120.41576	123.75930	18.87893	198.92986	29.91400	746.63995	-728.00507	-126.16563	608.79803	-500.44958	29.15645	612.09814	-487.09134	-208.85750	561.86310	378.26465	-61.06581	554.22089	393.45743	
6139	61.380	-239.76724	38.77625	-435.75162	161.45540	36.82518	-401.96207	-280.63568	12.33222	120.43209	123.68806	18.70586	198.91064	29.82487	747.45850	-727.87598	-125.70310	608.44263	-500.39294	29.57084	611.74072	-487.36816	-208.08952	561.92157	378.30777	-60.30102	554.02161	393.17233	
6140	61.390	-239.82175	38.94345	-435.67471	161.77179	36.74870	-401.80829	-280.61136	12.37671	120.38838	123.70994	18.62486	198.93079	30.85962	748.27838	-727.54730	-125.31393	608.33020	-500.39032	29.99579	611.54980	-487.55408	-207.43674	561.86633	378.25110	-59.53464	553.85767	393.09329	
6141	61.400	-239.87624	39.06242	-435.57724	161.50920	36.82045	-401.85034	-280.65378	12.36722	120.42831	123.55293	18.53699	198.94397	31.42327	749.30035	-727.24280	-124.85266	608.43091	-500.68958	30.66653	611.47510	-487.51691	-206.87115	561.56769	378.31427	-58.83609	553.61591	393.08542	
6142	61.410	-239.88005	39.16077	-435.54941	161.51765	36.80218	-401.74664	-280.69162	12.29000	120.49471	123.33624	18.48573	198.99654	31.44436	750.10938	-726.70978	-124.29110	608.64673	-500.75009	31.11398	611.52051	-487.52280	-206.14789	561.28821	378.44769	-58.52518	553.34442	393.05283	
6143	61.420	-239.81395	39.28994	-435.55597	161.54259	36.72917	-401.67770	-280.70294	12.14726	120.55462	123.27274	18.45989	199.13148	31.51712	750.93396	-726.31146	-123.34634	608.88806	-500.63620	31.62106	611.59503	-487.43842	-205.42062	560.94098	378.55756	-57.69684	552.85950	393.11044	
6144	61.430	-239.67307	39.42585	-435.60513	161.67355	36.56051	-401.64883	-280.73547	12.11599	120.58024	123.27248	18.41034	199.23831	31.36602	751.53357	-726.02386	-122.54321	609.10156	-500.24454	32.59410	611.85260	-487.00610	-203.88776	560.12848	378.66037	-57.18661	552.43347	393.51288	
6145	61.440	-239.65121	39.58428	-435.61209	161.55669	36.48856	-401.58441	-280.86600	12.14477	120.60845	123.24935	18.35010	199.43704	30.78848	751.91479	-725.86157	-121.78184	609.49414	-499.92767	33.33984	612.12762	-486.78201	-203.55240	559.93671	378.93539	-56.84859	552.13159	393.68961	
6146	61.450	-239.58981	39.77797	-435.57758	161.66116	36.55092	-401.45331	-280.98941	12.19887	120.65739	123.17664	18.34991	199.49435	30.09453	752.19519	-725.79419	-121.23225	609.93817	-499.72516	34.25293	612.29309	-486.22577	-202.91203	559.67627	379.25546	-56.15931	551.80225	394.19901	
6147	61.460	-239.67509	39.88934	-435.55023	161.29024	36.53421	-401.42874	-281.12421	12.28035	120.64471	123.09137	18.30046	199.58641	29.64668	752.29279	-725.76160	-120.30157	609.94250	-499.08594	34.87309	612.37714	-485.68100	-202.20944	559.46582	379.73242	-55.82693	551.71826	394.62085	
6148	61.470	-239.77127	39.89066	-435.52087	161.38870	36.41268	-401.30005	-281.18185	12.41971	120.64149	123.03915	18.23041	199.65970	29.07718	752.32196	-725.74756	-119.71886	609.91016	-498.52042	35.44363	612.50781	-485.27219	-201.50763	559.15546	380.14218	-55.11119	551.43890	395.18561	
6149	61.480	-239.86063	39.89784	-435.48059	161.33775	36.54859	-401.31534	-281.23340	12.58057	120.64336	123.09465	18.26566	199.73122	28.67093	752.24377	-725.75085	-119.13831	610.11658	-498.11584	36.14253	612.62061	-484.85590	-200.92773	558.97003	380.57477	-54.47486	551.28094	395.69458	
